<svg width="15" height="15" viewBox="0 0 15 15" fill="none" xmlns="http://www.w3.org/2000/svg">
<path d="M7.3444 1.44312C7.875 1.44312 8.68711 3.68327 9.05821 4.79741C9.17964 5.16198 9.51665 5.41483 9.90056 5.43114C11.0625 5.48051 13.3877 5.64992 13.3877 6.21512C13.3877 6.76921 11.749 8.09896 10.8817 8.76392C10.5726 9.0009 10.4447 9.40797 10.5612 9.77962C10.9089 10.8886 11.5369 13.1237 11.0801 13.4987C10.6334 13.8654 8.83877 12.5569 7.90238 11.8238C7.56542 11.5599 7.08876 11.5596 6.75176 11.8234C5.81518 12.5565 4.02369 13.8655 3.60868 13.4987C3.18331 13.1228 3.78012 10.8775 4.1074 9.77143C4.21622 9.40364 4.08698 9.00467 3.78251 8.77141C2.91785 8.10899 1.26678 6.7713 1.26678 6.21512C1.26678 5.64901 3.59937 5.47997 4.75944 5.43091C5.14079 5.41478 5.47586 5.16549 5.5992 4.80428C5.97886 3.69252 6.8127 1.44312 7.3444 1.44312Z" fill="#00B9AE" stroke="#00B9AE" stroke-width="1.76304" stroke-linecap="round" stroke-linejoin="round"/>
</svg>
